<svg width="63" height="63" viewBox="0 0 63 63" fill="none" xmlns="http://www.w3.org/2000/svg">
<path d="M55.125 26.25C55.125 44.625 31.5 60.375 31.5 60.375C31.5 60.375 7.875 44.625 7.875 26.25C7.875 19.9843 10.3641 13.9751 14.7946 9.5446C19.2251 5.11406 25.2343 2.625 31.5 2.625C37.7657 2.625 43.7748 5.11406 48.2054 9.5446C52.6359 13.9751 55.125 19.9843 55.125 26.25Z" fill="#69A1AC" stroke="#69A1AC" stroke-width="2" stroke-linecap="round" stroke-linejoin="round"/>
<path d="M31.5 40.7647C39.6868 40.7647 46.3235 34.128 46.3235 25.9412C46.3235 17.7544 39.6868 11.1176 31.5 11.1176C23.3132 11.1176 16.6765 17.7544 16.6765 25.9412C16.6765 34.128 23.3132 40.7647 31.5 40.7647Z" fill="white"/>
<path d="M28.6416 21.2686L28.857 22.7862C28.857 22.7862 26.6914 22.796 25.9275 23.3262C25.1635 23.8563 21.4869 29.9843 21.8462 30.8265C22.2055 31.6686 24.7845 32.1016 25.4855 31.9724C26.1864 31.8432 30.348 26.5341 30.6355 26.8705C30.923 27.2068 30.6167 31.8052 31.0928 32.6258C31.5689 33.4464 34.5705 32.6336 35.2535 32.3779C35.9365 32.1222 37.9858 29.6682 37.7792 29.0574C37.5727 28.4466 34.0864 25.845 33.9788 25.0863C33.8711 24.3275 39.9728 24.2409 40.521 23.8803C41.0692 23.5197 42.2289 20.7106 42.0044 19.9733C41.7799 19.2361 36.0458 18.5984 34.6798 19.1097C33.3138 19.6211 32.0834 21.0235 32.0834 21.0235L31.2209 20.0146C31.2209 20.0146 30.0709 18.6693 29.271 18.9465C28.4712 19.2237 28.6416 21.2686 28.6416 21.2686Z" fill="#FFF05A" stroke="#69A1AC" stroke-width="0.5"/>
</svg>
